<svg xmlns="http://www.w3.org/2000/svg" width="582" height="241.85" viewBox="0 0 582 241.85"><g transform="translate(-354 -441.15)"><text transform="translate(354 667)" fill="#36465a" font-size="66" font-family="SFProDisplay-Heavy, SF Pro Display" font-weight="800"><tspan x="0" y="0">CREATE</tspan><tspan y="0" xml:space="preserve" fill="#61b083"> VUE </tspan><tspan y="0" fill="#364659">FILES</tspan></text><g transform="translate(531.938 485.722)"><path d="M187.554,81.734a10.562,10.562,0,0,1-1.777.545,16.816,16.816,0,0,1-2.146.318c-.774.067-1.6.1-2.485.084s-1.814-.062-2.791-.154q-.761-.071-1.556-.175t-1.619-.239q-.825-.136-1.676-.3t-1.727-.365q-.913-.207-1.851-.447t-1.9-.513q-.958-.272-1.932-.576t-1.961-.638L36.313,35.978q-1.013-.343-2.008-.706t-1.966-.745q-.971-.381-1.916-.78t-1.858-.811q-.875-.4-1.721-.806t-1.658-.83q-.812-.421-1.588-.851t-1.512-.869q-1.418-.845-2.673-1.709t-2.323-1.728q-1.068-.863-1.942-1.72a18.457,18.457,0,0,1-1.533-1.687,11.687,11.687,0,0,1-1.092-1.616,7.123,7.123,0,0,1-.634-1.51,4.485,4.485,0,0,1-.176-1.385A3.4,3.4,0,0,1,12,16.984a3.473,3.473,0,0,1,.325-.581,4,4,0,0,1,.445-.534,4.915,4.915,0,0,1,.562-.486A6.267,6.267,0,0,1,14,14.946a8.213,8.213,0,0,1,.825-.4q.443-.187.945-.347t1.06-.29q.557-.131,1.171-.234l15.12-2.533,71,24.08L74.283,4.245,86.548,2.19q.471-.079.983-.132t1.06-.079q.548-.027,1.133-.027t1.2.025q.592.024,1.215.073t1.273.12q.65.072,1.326.166t1.375.212c.9.151,1.822.33,2.765.535s1.905.435,2.881.691,1.964.534,2.959.836,2,.626,3,.971,2,.709,2.983,1.088,1.955.774,2.906,1.183,1.885.83,2.794,1.262,1.792.875,2.645,1.326q.664.351,1.3.707t1.243.716q.607.36,1.182.723t1.117.728q.565.381,1.093.762T126,14.84q.489.382.936.763t.853.76L186.009,70.84q.513.48.969.95t.857.93q.4.46.741.907t.622.882q.269.416.482.818a8.416,8.416,0,0,1,.369.79,6.448,6.448,0,0,1,.254.759,5.019,5.019,0,0,1,.138.726,3.748,3.748,0,0,1-.069,1.289,3.316,3.316,0,0,1-.508,1.13,4.131,4.131,0,0,1-.942.953A6.412,6.412,0,0,1,187.554,81.734Z" fill="#61b083"/><path d="M106.937,47.088a11.964,11.964,0,0,1-1.647.348,18.451,18.451,0,0,1-1.934.169c-.69.026-1.423.021-2.194-.014s-1.582-.1-2.425-.2q-.657-.076-1.338-.177t-1.384-.226q-.7-.125-1.424-.274t-1.459-.321q-.769-.18-1.555-.385t-1.585-.435q-.8-.23-1.608-.483t-1.625-.529L29.309,25.12q-.832-.281-1.649-.579t-1.617-.609q-.8-.312-1.578-.637t-1.534-.663q-.724-.323-1.424-.658T20.131,21.3q-.674-.343-1.321-.694t-1.262-.709q-1.185-.689-2.241-1.392t-1.963-1.408q-.907-.7-1.659-1.4a16.765,16.765,0,0,1-1.331-1.374A10.62,10.62,0,0,1,9.383,13a6.375,6.375,0,0,1-.6-1.231,3.836,3.836,0,0,1-.226-1.129A2.694,2.694,0,0,1,8.708,9.63a2.574,2.574,0,0,1,.185-.4,2.806,2.806,0,0,1,.256-.374,3.256,3.256,0,0,1,.325-.347,3.921,3.921,0,0,1,.394-.318l69.7,23.637L50.229,1.379q.467.028.952.072t.988.1q.5.058,1.019.131t1.047.16c.809.133,1.641.291,2.49.473s1.712.386,2.587.613,1.76.475,2.65.743,1.785.557,2.68.865,1.781.632,2.655.97,1.735.69,2.577,1.054,1.667.74,2.468,1.125,1.578.78,2.326,1.182q.582.313,1.139.631t1.085.639q.529.321,1.028.645t.968.649q.489.339.943.68t.872.681q.418.341.8.68t.721.677L107.265,38.93q.378.374.709.74t.612.721q.282.356.513.7t.412.677a6.324,6.324,0,0,1,.3.625,4.838,4.838,0,0,1,.2.6,3.762,3.762,0,0,1,.106.573,3.035,3.035,0,0,1,.008.544,2.575,2.575,0,0,1-.263.956,2.912,2.912,0,0,1-.624.823,4.387,4.387,0,0,1-.978.678A7.3,7.3,0,0,1,106.937,47.088Z" transform="translate(24.562 3.393)" fill="#364659"/><path d="M187.554,81.734a10.562,10.562,0,0,1-1.777.545,16.816,16.816,0,0,1-2.146.318c-.774.067-1.6.1-2.485.084s-1.814-.062-2.791-.154q-.761-.071-1.556-.175t-1.619-.239q-.825-.136-1.676-.3t-1.727-.365q-.913-.207-1.851-.447t-1.9-.513q-.958-.272-1.932-.576t-1.961-.638L36.313,35.978q-1.013-.343-2.008-.706t-1.966-.745q-.971-.381-1.916-.78t-1.858-.811q-.875-.4-1.721-.806t-1.658-.83q-.812-.421-1.588-.851t-1.512-.869q-1.418-.845-2.673-1.709t-2.323-1.728q-1.068-.863-1.942-1.72a18.457,18.457,0,0,1-1.533-1.687,11.687,11.687,0,0,1-1.092-1.616,7.123,7.123,0,0,1-.634-1.51,4.485,4.485,0,0,1-.176-1.385A3.4,3.4,0,0,1,12,16.984a3.473,3.473,0,0,1,.325-.581,4,4,0,0,1,.445-.534,4.915,4.915,0,0,1,.562-.486A6.267,6.267,0,0,1,14,14.946a8.213,8.213,0,0,1,.825-.4q.443-.187.945-.347t1.06-.29q.557-.131,1.171-.234l15.12-2.533,71,24.08L74.283,4.245,86.548,2.19q.471-.079.983-.132t1.06-.079q.548-.027,1.133-.027t1.2.025q.592.024,1.215.073t1.273.12q.65.072,1.326.166t1.375.212c.9.151,1.822.33,2.765.535s1.905.435,2.881.691,1.964.534,2.959.836,2,.626,3,.971,2,.709,2.983,1.088,1.955.774,2.906,1.183,1.885.83,2.794,1.262,1.792.875,2.645,1.326q.664.351,1.3.707t1.243.716q.607.36,1.182.723t1.117.728q.565.381,1.093.762T126,14.84q.489.382.936.763t.853.76L186.009,70.84q.513.48.969.95t.857.93q.4.46.741.907t.622.882q.269.416.482.818a8.416,8.416,0,0,1,.369.79,6.448,6.448,0,0,1,.254.759,5.019,5.019,0,0,1,.138.726,3.748,3.748,0,0,1-.069,1.289,3.316,3.316,0,0,1-.508,1.13,4.131,4.131,0,0,1-.942.953A6.412,6.412,0,0,1,187.554,81.734Z" fill="rgba(0,0,0,0.4)"/></g><g transform="translate(521.719 441.15)"><path d="M199.675,78.047a12.22,12.22,0,0,1-1.883.378,20.532,20.532,0,0,1-2.277.151c-.822.012-1.7-.014-2.639-.08s-1.928-.17-2.967-.313q-.81-.112-1.654-.255t-1.722-.316q-.877-.173-1.784-.377t-1.838-.436q-.972-.243-1.97-.517t-2.018-.579q-1.02-.3-2.057-.639t-2.089-.7L38.516,27.416q-1.081-.373-2.142-.762t-2.1-.793q-1.035-.4-2.04-.82T30.261,24.2q-.931-.41-1.83-.831t-1.761-.848q-.862-.428-1.685-.862t-1.6-.873q-1.5-.845-2.828-1.7T18.105,17.4q-1.123-.837-2.038-1.655a18.8,18.8,0,0,1-1.6-1.6,10.9,10.9,0,0,1-1.124-1.5,5.934,5.934,0,0,1-.634-1.379,3.34,3.34,0,0,1-.145-1.236,2.515,2.515,0,0,1,.343-1.078,2.863,2.863,0,0,1,.369-.491,3.66,3.66,0,0,1,.5-.441,4.952,4.952,0,0,1,.62-.391,6.842,6.842,0,0,1,.741-.339q.417-.163.9-.3t1.026-.241q.543-.106,1.148-.184t1.265-.126l16.291-1.2L111.12,31.243,79.832,1.986l13.054-.963q.5-.037,1.044-.048t1.124,0q.581.014,1.2.053t1.273.1q.627.062,1.286.146t1.346.191q.687.107,1.4.235t1.453.279c.948.193,1.924.412,2.921.655s2.011.509,3.041.8,2.071.6,3.121.93,2.106.682,3.163,1.051,2.107.755,3.143,1.152,2.059.809,3.061,1.23,1.985.853,2.941,1.291,1.887.886,2.784,1.338q.7.352,1.368.706t1.308.71q.638.356,1.244.712t1.175.712q.594.371,1.149.741t1.069.737q.514.368.984.732t.9.723L197.968,68.2q.546.461,1.033.91t.914.885q.427.436.791.858t.665.827q.288.389.517.762a7.636,7.636,0,0,1,.4.73,5.536,5.536,0,0,1,.275.7,4.035,4.035,0,0,1,.151.658,2.814,2.814,0,0,1-.064,1.15,2.554,2.554,0,0,1-.53.981,3.716,3.716,0,0,1-.992.8A6.73,6.73,0,0,1,199.675,78.047Z" transform="translate(0 0)" fill="#61b083"/><path d="M113.588,44.734a14.588,14.588,0,0,1-1.754.2c-.638.038-1.326.046-2.059.024s-1.515-.073-2.336-.155-1.684-.193-2.581-.334q-.7-.11-1.424-.244t-1.472-.291q-.747-.157-1.515-.336T98.9,43.221q-.818-.21-1.654-.444t-1.685-.49q-.849-.256-1.709-.534t-1.727-.577L31.031,20.136q-.885-.3-1.754-.623t-1.719-.647q-.849-.329-1.677-.67t-1.629-.689q-.768-.335-1.511-.677t-1.458-.691q-.714-.349-1.4-.7t-1.335-.711q-1.253-.688-2.367-1.381t-2.068-1.375q-.954-.682-1.742-1.349a17.477,17.477,0,0,1-1.391-1.3A10.2,10.2,0,0,1,9.974,8.089a5.489,5.489,0,0,1-.61-1.126,2.917,2.917,0,0,1-.211-1.01,1.95,1.95,0,0,1,.19-.88,2.017,2.017,0,0,1,.209-.341,2.4,2.4,0,0,1,.284-.312,3.041,3.041,0,0,1,.358-.283,3.982,3.982,0,0,1,.43-.253L84.6,29.411,53.838.651q.5.056,1.011.127T55.9.934q.532.085,1.081.184t1.11.211c.857.171,1.738.366,2.636.582s1.811.454,2.736.711,1.861.535,2.8.83,1.886.609,2.831.939,1.881.674,2.8,1.029,1.831.722,2.72,1.1,1.758.761,2.6,1.152,1.663.79,2.45,1.193q.614.314,1.2.63t1.143.633q.557.317,1.083.635t1.019.634q.514.33.992.66t.917.656q.439.327.838.65t.757.643l26.366,23.513q.4.356.748.7t.646.679q.3.334.541.654t.434.627a5.661,5.661,0,0,1,.313.574,4.054,4.054,0,0,1,.212.545,2.947,2.947,0,0,1,.109.515,2.252,2.252,0,0,1,.006.483,1.909,1.909,0,0,1-.284.832,2.48,2.48,0,0,1-.667.69,4.451,4.451,0,0,1-1.043.539A8.336,8.336,0,0,1,113.588,44.734Z" transform="translate(26.525 1.831)" fill="#364659"/></g></g></svg>